<?xml version="1.0" encoding="UTF-8"?>
<svg id="Layer_1" data-name="Layer 1" xmlns="http://www.w3.org/2000/svg" viewBox="0 0 1064.3 234.02">
  <defs>
    <style>
      .cls-1 {
        fill: none;
      }

      .cls-2 {
        letter-spacing: 0em;
      }

      .cls-3 {
        font-family: AvenirNext-DemiBold, 'Avenir Next';
        font-size: 178.23px;
        font-weight: 300;
      }

      .cls-4 {
        fill: #fff;
      }

      .cls-5 {
        letter-spacing: -.02em;
      }
    </style>
  </defs>
  <text class="cls-3" transform="translate(145.19 152.21)"><tspan class="cls-5" x="0" y="0">r</tspan><tspan class="cls-2" x="61.67" y="0">een L</tspan><tspan class="cls-1" x="505.64" y="0">i</tspan><tspan class="cls-4" x="553.41" y="0">g</tspan><tspan x="666.05" y="0">h</tspan></text>
  <g>
    <path d="M68.82,186.01h995.49v-20.97c-1.77.59-230.06.63-467.09.5s-482.79-.42-519.5-.49"/>
    <path d="M77.71,165.06c-.47.02-.95.04-1.42.05s-.96,0-1.44-.01c-.08,0-.16,0-.24-.01s-.16,0-.23-.01c-.15,0-.3.01-.45.02s-.3,0-.45,0c-.3,0-.6,0-.9-.01s-.6-.02-.89-.03c-.59,0-1.06,0-1.4,0s-.54,0-.6,0c-.66,0-1.31-.07-1.97-.2s-1.32-.31-1.98-.54c-.9-.18-1.79-.4-2.67-.65s-1.74-.53-2.58-.83c-4.24-1.32-8.13-3.35-11.56-5.96s-6.42-5.79-8.85-9.39c-.76-.91-1.49-1.86-2.17-2.84s-1.32-1.99-1.92-3.03c-1.59-2.39-3.02-4.99-4.28-7.79s-2.36-5.81-3.3-9.02c-1.07-3.66-1.86-7.52-2.4-11.59s-.8-8.35-.8-12.83c0-4.25.28-8.34.84-12.27s1.41-7.71,2.53-11.33c1.13-3.62,2.46-6.98,3.99-10.09s3.28-5.96,5.23-8.55c1.95-2.6,4.08-4.91,6.41-6.96s4.85-3.81,7.55-5.31c2.71-1.49,5.51-2.61,8.42-3.36s5.91-1.12,9.01-1.12c3.29,0,6.42.37,9.4,1.12s5.81,1.87,8.49,3.36c2.68,1.49,5.16,3.26,7.46,5.31s4.4,4.36,6.32,6.96c1.92,2.6,3.61,5.45,5.09,8.55s2.73,6.47,3.77,10.09l11.5-5.6,11.5-5.6c-1.7-5.23-3.75-10.1-6.14-14.6s-5.12-8.64-8.19-12.42c-3.07-3.77-6.43-7.13-10.06-10.06s-7.55-5.44-11.75-7.52c-4.2-2.08-8.58-3.65-13.14-4.69s-9.31-1.56-14.24-1.56-9.68.52-14.26,1.56-8.98,2.61-13.21,4.69c-4.23,2.08-8.18,4.59-11.84,7.52s-7.05,6.28-10.15,10.06-5.86,7.91-8.28,12.42-4.49,9.37-6.23,14.6c-1.73,5.23-3.03,10.75-3.9,16.55s-1.3,11.88-1.3,18.25c0,6.76.41,13.16,1.23,19.2s2.05,11.71,3.7,17.02c1.64,5.31,3.63,10.2,5.96,14.69s5,8.55,8.01,12.21c3.01,3.66,6.33,6.88,9.95,9.67s7.54,5.15,11.77,7.08c4.23,1.93,8.69,3.37,13.39,4.34,4.7.96,9.64,1.44,14.81,1.44"/>
  </g>
  <path d="M116.67,152.21v-19.01c0-7.65-6.2-13.85-13.85-13.85h-13.35s0-18.98,0-18.98h49.47v51.84"/>
  <path d="M778.69,154.71v-13.22h-.36c-1.55,2.1-3.31,3.95-5.28,5.56s-4.17,2.96-6.57,4.07c-2.41,1.11-4.95,1.94-7.64,2.5s-5.52.83-8.49.83c-3.21,0-6.27-.3-9.18-.89-2.91-.59-5.67-1.49-8.29-2.67-2.62-1.19-5.03-2.58-7.24-4.19s-4.22-3.42-6.04-5.44c-1.81-2.02-3.42-4.21-4.84-6.57s-2.62-4.89-3.63-7.6c-1.01-2.7-1.77-5.49-2.27-8.35s-.76-5.82-.76-8.85.24-6.09.73-9,1.22-5.73,2.21-8.47c.98-2.73,2.17-5.29,3.56-7.66s3-4.58,4.81-6.6c1.81-2.02,3.82-3.83,6.02-5.44s4.59-3,7.17-4.19c2.58-1.19,5.32-2.08,8.22-2.67s5.95-.89,9.16-.89c3.03,0,5.96.31,8.78.94s5.54,1.56,8.15,2.81c2.61,1.25,4.96,2.84,7.04,4.77s3.89,4.2,5.44,6.82h.36v-12.83h20.32v87.23M800.08,196.07c-.95,3.12-5.01,12.75-6.48,15.39-1.47,2.64-3.2,5.05-5.19,7.22-1.99,2.17-4.24,4.09-6.75,5.77s-5.28,3.11-8.31,4.3c-3.03,1.19-6.34,2.08-9.94,2.67s-7.47.89-11.63.89c-1.72,0-3.5-.07-5.33-.22s-3.71-.37-5.64-.67c-1.93-.3-3.85-.67-5.75-1.12s-3.79-.96-5.66-1.56c-1.87-.59-3.71-1.26-5.5-2s-3.56-1.56-5.28-2.45c-1.72-.89-3.36-1.84-4.9-2.85s-3-2.08-4.37-3.21l6.15-8.29,6.15-8.29c2.08,1.96,4.29,3.69,6.64,5.19s4.83,2.77,7.44,3.81c2.61,1.04,5.24,1.82,7.89,2.34s5.3.78,7.98.78,4.91-.19,7.06-.56,4.11-.93,5.86-1.68c1.75-.75,3.33-1.63,4.72-2.66s2.61-2.2,3.65-3.51c1.04-1.31,1.93-2.74,2.67-4.29s1.34-3.22,1.78-5.01M754.45,82.45c-1.96,0-3.81.18-5.55.53s-3.36.89-4.88,1.6c-1.51.71-2.91,1.55-4.19,2.51s-2.44,2.05-3.47,3.26c-1.04,1.21-1.96,2.54-2.76,3.97s-1.49,2.98-2.05,4.64c-.57,1.66-.99,3.38-1.27,5.15s-.42,3.61-.42,5.51c0,1.72.14,3.41.42,5.06s.71,3.29,1.27,4.88c.56,1.6,1.25,3.12,2.05,4.55s1.72,2.79,2.76,4.06c1.04,1.27,2.2,2.42,3.47,3.44s2.67,1.92,4.19,2.69c1.52.77,3.13,1.35,4.83,1.73s3.51.58,5.41.58,3.82-.18,5.59-.55,3.44-.92,5.01-1.66c1.57-.74,3.03-1.61,4.37-2.6s2.56-2.11,3.66-3.35c1.1-1.24,2.07-2.58,2.92-4.02s1.57-2.97,2.16-4.6c.59-1.63,1.04-3.29,1.34-5s.45-3.44.45-5.22-.15-3.63-.45-5.37-.74-3.45-1.34-5.11c-.59-1.66-1.32-3.21-2.16-4.66s-1.82-2.8-2.92-4.04c-1.1-1.24-2.31-2.35-3.63-3.33s-2.75-1.82-4.3-2.53c-1.55-.71-3.19-1.24-4.95-1.6s-3.61-.53-5.57-.53Z"/>
  <path d="M954.56,136.21h109.74v17.67h-109.74c-4.01,0-7.26-3.25-7.26-7.26v-3.15c0-4.01,3.25-7.26,7.26-7.26Z"/>
  <path d="M973.88,151.67c-1.9.71-4.16,1.28-6.77,1.69-2.61.41-5.11.62-7.48.62-5.7,0-10.34-.8-13.9-2.41-3.57-1.6-6.39-3.8-8.47-6.59-2.08-2.79-3.51-6-4.28-9.63-.77-3.62-1.16-7.51-1.16-11.67v-39.92h-14.97v-17.11h14.97v-24.77h21.03v24.77h21.39v17.11h-21.39v39.75c0,3.8.68,6.95,2.05,9.45,1.36,2.49,4.43,3.74,9.18,3.74,1.43,0,2.97-.15,4.63-.45"/>
  <circle cx="680.9" cy="135.8" r="16.41"/>
  <circle cx="680.9" cy="95.64" r="16.41"/>
  <circle cx="680.9" cy="55.49" r="16.41"/>
</svg>