<svg width="49" height="117" viewBox="0 0 49 117" fill="none" xmlns="http://www.w3.org/2000/svg">
<path d="M39.1055 0.73999H9.0044C4.06571 0.73999 0.0549316 4.56246 0.0549316 9.28889V108.2C0.0549316 112.917 4.06571 116.74 9.0044 116.74H39.1055C44.0442 116.74 48.0549 112.917 48.0549 108.2V9.28889C48.0549 4.56246 44.0442 0.73999 39.1055 0.73999ZM24.0499 110.025C15.2202 110.025 8.06654 103.189 8.06654 94.7608C8.06654 86.3324 15.2301 79.4967 24.0499 79.4967C32.8697 79.4967 40.0333 86.3238 40.0333 94.7608C40.0333 103.198 32.8697 110.025 24.0499 110.025ZM24.0499 74.0126C15.2202 74.0126 8.06654 67.177 8.06654 58.74C8.06654 50.303 15.2301 43.4759 24.0499 43.4759C32.8697 43.4759 40.0333 50.3116 40.0333 58.74C40.0333 67.1684 32.8697 74.0126 24.0499 74.0126ZM24.0499 37.9919C15.2102 37.9919 8.06654 31.1562 8.06654 22.7278C8.06654 14.2994 15.2202 7.46375 24.0499 7.46375C32.8797 7.46375 40.0333 14.2994 40.0333 22.7278C40.0333 31.1562 32.8697 37.9919 24.0499 37.9919Z" fill="#888888"/>
</svg>
